<svg xmlns="http://www.w3.org/2000/svg" width="389" height="70" fill-rule="evenodd" clip-rule="evenodd" image-rendering="optimizeQuality" shape-rendering="geometricPrecision" text-rendering="geometricPrecision" viewBox="0 0 1539 277">
  <defs>
    <style>
      .fil3{fill:#ffae00}.fil0{fill:#fc0}
</style>
  </defs>
  <g id="Слой_x0020_1">
    <g id="_443965792">
      <path d="M939 12H46c-10 0-18 4-24 10S12 36 12 46v185c0 10 4 18 10 24s14 10 24 10h893c10 0 18-4 24-10s10-14 10-24V46c0-10-4-18-10-24s-14-10-24-10zM46 0h893c13 0 24 5 33 13 8 9 13 20 13 33v185c0 13-5 24-13 33-9 8-20 13-33 13H46c-13 0-24-5-33-13-8-9-13-20-13-33V46c0-13 5-24 13-33C22 5 33 0 46 0z" class="fil0" />
      <path fill="#6dcff6" d="M1060 122v33h82v28l45-45-45-44v28z" />
      <path fill="#2b2a29" d="M128 49h17c5 0 9 5 9 10v17c0 5-4 9-9 9h-17c-5 0-9-4-9-9V59c0-5 4-10 9-10zm712 143h17c5 0 9 4 9 9v17c0 5-4 9-9 9h-17c-5 0-9-4-9-9v-17c0-5 4-9 9-9zm-48 0h18c5 0 9 4 9 9v17c0 5-4 9-9 9h-18c-5 0-9-4-9-9v-17c0-5 4-9 9-9zm-47 0h17c5 0 9 4 9 9v17c0 5-4 9-9 9h-17c-5 0-9-4-9-9v-17c0-5 4-9 9-9zm-95 0h17c5 0 9 4 9 9v17c0 5-4 9-9 9h-17c-5 0-9-4-9-9v-17c0-5 4-9 9-9zm-47 0h17c5 0 9 4 9 9v17c0 5-4 9-9 9h-17c-6 0-10-4-10-9v-17c0-5 4-9 10-9zm-48 0h17c5 0 9 4 9 9v17c0 5-4 9-9 9h-17c-5 0-9-4-9-9v-17c0-5 4-9 9-9zm-285 0h255c5 0 9 4 9 9v17c0 5-4 9-9 9H270c-5 0-9-4-9-9v-17c0-5 4-9 9-9zm-47 0h17c5 0 9 4 9 9v17c0 5-4 9-9 9h-17c-5 0-9-4-9-9v-17c0-5 4-9 9-9zm-48 0h18c5 0 9 4 9 9v17c0 5-4 9-9 9h-18c-5 0-9-4-9-9v-17c0-5 4-9 9-9zm-47 0h17c5 0 9 4 9 9v17c0 5-4 9-9 9h-17c-5 0-9-4-9-9v-17c0-5 4-9 9-9zm664-48h18c5 0 9 5 9 10v17c0 5-4 9-9 9h-18c-5 0-9-4-9-9v-17c0-5 4-10 9-10zm-142 0h17c5 0 9 5 9 10v17c0 5-4 9-9 9h-17c-5 0-9-4-9-9v-17c0-5 4-10 9-10zm-47 0h17c5 0 9 5 9 10v17c0 5-4 9-9 9h-17c-6 0-10-4-10-9v-17c0-5 4-10 10-10zm-48 0h17c5 0 9 5 9 10v17c0 5-4 9-9 9h-17c-5 0-9-4-9-9v-17c0-5 4-10 9-10zm-47 0h17c5 0 9 5 9 10v17c0 5-4 9-9 9h-17c-5 0-10-4-10-9v-17c0-5 5-10 10-10zm-48 0h17c5 0 10 5 10 10v17c0 5-5 9-10 9h-17c-5 0-9-4-9-9v-17c0-5 4-10 9-10zm-47 0h17c5 0 9 5 9 10v17c0 5-4 9-9 9h-17c-5 0-10-4-10-9v-17c0-5 5-10 10-10zm-48 0h17c5 0 10 5 10 10v17c0 5-5 9-10 9h-17c-5 0-9-4-9-9v-17c0-5 4-10 9-10zm-47 0h17c5 0 9 5 9 10v17c0 5-4 9-9 9h-17c-5 0-9-4-9-9v-17c0-5 4-10 9-10zm-48 0h17c6 0 10 5 10 10v17c0 5-4 9-10 9h-17c-5 0-9-4-9-9v-17c0-5 4-10 9-10zm-47 0h17c5 0 9 5 9 10v17c0 5-4 9-9 9h-17c-5 0-9-4-9-9v-17c0-5 4-10 9-10zm-48 0h18c5 0 9 5 9 10v17c0 5-4 9-9 9h-18c-5 0-9-4-9-9v-17c0-5 4-10 9-10zm-47 0h17c5 0 9 5 9 10v17c0 5-4 9-9 9h-17c-5 0-9-4-9-9v-17c0-5 4-10 9-10zm712-47h17c5 0 9 4 9 9v17c0 5-4 10-9 10h-17c-5 0-9-5-9-10v-17c0-5 4-9 9-9zm-48 0h18c5 0 9 4 9 9v17c0 5-4 10-9 10h-18c-5 0-9-5-9-10v-17c0-5 4-9 9-9zm-47 0h17c5 0 9 4 9 9v17c0 5-4 10-9 10h-17c-5 0-9-5-9-10v-17c0-5 4-9 9-9zm-95 0h17c5 0 9 4 9 9v17c0 5-4 10-9 10h-17c-5 0-9-5-9-10v-17c0-5 4-9 9-9zm-47 0h17c5 0 9 4 9 9v17c0 5-4 10-9 10h-17c-6 0-10-5-10-10v-17c0-5 4-9 10-9zm-48 0h17c5 0 9 4 9 9v17c0 5-4 10-9 10h-17c-5 0-9-5-9-10v-17c0-5 4-9 9-9zm-47 0h17c5 0 9 4 9 9v17c0 5-4 10-9 10h-17c-5 0-10-5-10-10v-17c0-5 5-9 10-9zm-48 0h17c5 0 10 4 10 9v17c0 5-5 10-10 10h-17c-5 0-9-5-9-10v-17c0-5 4-9 9-9zm-47 0h17c5 0 9 4 9 9v17c0 5-4 10-9 10h-17c-5 0-10-5-10-10v-17c0-5 5-9 10-9zm-48 0h17c5 0 10 4 10 9v17c0 5-5 10-10 10h-17c-5 0-9-5-9-10v-17c0-5 4-9 9-9zm-47 0h17c5 0 9 4 9 9v17c0 5-4 10-9 10h-17c-5 0-9-5-9-10v-17c0-5 4-9 9-9zm-48 0h17c6 0 10 4 10 9v17c0 5-4 10-10 10h-17c-5 0-9-5-9-10v-17c0-5 4-9 9-9zm-47 0h17c5 0 9 4 9 9v17c0 5-4 10-9 10h-17c-5 0-9-5-9-10v-17c0-5 4-9 9-9zm-48 0h18c5 0 9 4 9 9v17c0 5-4 10-9 10h-18c-5 0-9-5-9-10v-17c0-5 4-9 9-9zm-47 0h17c5 0 9 4 9 9v17c0 5-4 10-9 10h-17c-5 0-9-5-9-10v-17c0-5 4-9 9-9zm712-48h17c5 0 9 5 9 10v17c0 5-4 9-9 9h-17c-5 0-9-4-9-9V59c0-5 4-10 9-10zm-48 0h18c5 0 9 5 9 10v17c0 5-4 9-9 9h-18c-5 0-9-4-9-9V59c0-5 4-10 9-10zm-47 0h17c5 0 9 5 9 10v17c0 5-4 9-9 9h-17c-5 0-9-4-9-9V59c0-5 4-10 9-10zm-95 0h17c5 0 9 5 9 10v17c0 5-4 9-9 9h-17c-5 0-9-4-9-9V59c0-5 4-10 9-10zm-47 0h17c5 0 9 5 9 10v17c0 5-4 9-9 9h-17c-6 0-10-4-10-9V59c0-5 4-10 10-10zm-48 0h17c5 0 9 5 9 10v17c0 5-4 9-9 9h-17c-5 0-9-4-9-9V59c0-5 4-10 9-10zm-47 0h17c5 0 9 5 9 10v17c0 5-4 9-9 9h-17c-5 0-10-4-10-9V59c0-5 5-10 10-10zm-48 0h17c5 0 10 5 10 10v17c0 5-5 9-10 9h-17c-5 0-9-4-9-9V59c0-5 4-10 9-10zm-47 0h17c5 0 9 5 9 10v17c0 5-4 9-9 9h-17c-5 0-10-4-10-9V59c0-5 5-10 10-10zm-48 0h17c5 0 10 5 10 10v17c0 5-5 9-10 9h-17c-5 0-9-4-9-9V59c0-5 4-10 9-10zm-47 0h17c5 0 9 5 9 10v17c0 5-4 9-9 9h-17c-5 0-9-4-9-9V59c0-5 4-10 9-10zm-48 0h17c6 0 10 5 10 10v17c0 5-4 9-10 9h-17c-5 0-9-4-9-9V59c0-5 4-10 9-10zm-47 0h17c5 0 9 5 9 10v17c0 5-4 9-9 9h-17c-5 0-9-4-9-9V59c0-5 4-10 9-10zm-48 0h18c5 0 9 5 9 10v17c0 5-4 9-9 9h-18c-5 0-9-4-9-9V59c0-5 4-10 9-10z" />
      <path d="M1420 0c66 0 119 62 119 138 0 77-53 139-119 139h-36c-65-1-83-62-83-139 0-76 17-137 82-138h37z" class="fil3" />
      <ellipse cx="1381" cy="138" class="fil0" rx="119" ry="138" />
      <path d="M1381 19c28 0 53 14 72 35 18 22 30 52 30 84 0 33-12 63-30 85-19 21-44 34-72 34-29 0-54-13-73-34-18-22-29-52-29-85 0-32 11-62 29-84 19-21 44-35 73-35zm64 44c-16-20-39-32-64-32-26 0-49 12-65 32-17 19-27 46-27 75 0 30 10 57 27 76 16 20 39 32 65 32 25 0 48-12 64-32 17-19 27-46 27-76 0-29-10-56-27-75z" class="fil3" />
      <path fill="#fff" fill-rule="nonzero" d="M1372 220v-21h18v21h-18zm0-142V57h18v21h-18zm10 127c-8 0-15-2-21-5-5-3-10-8-14-14s-6-13-7-22l17-3c2 7 5 13 9 17 5 5 10 7 17 7 6 0 11-2 15-5 4-4 6-8 6-14 0-3-1-6-3-9-2-2-5-4-9-5l-26-10c-15-6-22-16-22-33 0-7 1-14 4-19 3-6 8-10 13-13 6-3 12-5 20-5 7 0 13 2 18 5 6 3 10 7 14 12 4 6 6 13 8 20l-19 4c0-4-2-7-4-11-2-3-4-5-7-7s-7-3-11-3c-3 0-6 1-9 2s-5 3-7 6c-2 2-3 5-3 8 0 4 2 7 4 9 2 3 6 5 11 7l19 6c10 4 16 8 20 13 4 6 6 13 6 22 0 8-1 15-5 21-3 6-7 10-13 14-6 3-13 5-21 5z" />
    </g>
  </g>
</svg>
