<svg xmlns="http://www.w3.org/2000/svg" width="389" height="70" fill-rule="evenodd" clip-rule="evenodd" image-rendering="optimizeQuality" shape-rendering="geometricPrecision" text-rendering="geometricPrecision" viewBox="0 0 1534 276">
  <defs>
    <style>
      .fil0{fill:#b7ca33}
</style>
  </defs>
  <g id="Слой_x0020_1">
    <g id="_442619040">
      <path d="M937 12H45c-9 0-17 4-23 10S12 36 12 45v186c0 9 4 17 10 23s14 10 23 10h892c9 0 17-4 23-10s10-14 10-23V45c0-9-4-17-10-23s-14-10-23-10zM45 0h892c12 0 23 5 32 13 8 9 13 20 13 32v186c0 12-5 24-13 32-9 8-20 13-32 13H45c-12 0-23-5-32-13-8-8-13-20-13-32V45c0-12 5-23 13-32C22 5 33 0 45 0z" class="fil0" />
      <path fill="#6dcff6" d="M1057 121v34h82v28l44-45-44-45v28z" />
      <path fill="#2b2a29" d="M169 148l4 3s-7 18-13 33-13 32-34 26-27-22-29-44c-3-22 10-51 37-75 27-23 55-22 68-19 12 2 22 13 22 13l21-4 1 3s-16 2-26 8c-11 6-21 25-21 25l-5-3s4-8 9-14c4-7 11-12 11-12s-9-7-21-8c-13 0-32 0-55 26-22 26-29 51-25 70 4 18 14 26 21 25 7 0 15-8 20-22 5-13 15-31 15-31zm595 55l-2 5 35 1 3-6-15-4s14-18 25-32 17-19 17-19h41s-3 8-12 26c-9 17-30 26-30 26l-1 8 46-4 2-6-21-1s16-12 24-30c7-18 14-36 7-56-7-19-29-45-29-45l-8 2s7 29-8 49c-14 21-41 55-50 65-10 11-13 17-13 17l-11 4zm70-64s10-9 15-22c4-13 7-26 7-26s10 7 16 22c5 15 0 25 0 25l-38 1zM673 64l-3 10h19s-11 14-7 37c3 22 12 29 17 43 6 14 5 20-3 32s-11 15-11 15l-14 4v4l37 1 3-6-14-3s5-9 12-19 7-19 1-34c-6-14-10-22-10-22l56 1s-1 17-5 34c-3 17-18 41-18 41l-11 1v6l32-1 2-4-10-1s11-12 18-39c6-28 16-50 16-66-1-16-2-24-2-24l13-1 1-5-47-3-1 6 21 5s3 12 0 22-6 19-6 19h-59s-3-8 1-22 9-20 9-20l14-3v-6l-51-2zm-28-2h6s-6 12-5 25c2 14 5 23 5 23l-2 4s-10-14-20-25c-9-11-21-18-33-7-12 10-15 17 11 41 27 25 26 36 20 53-7 17-12 31 4 26 16-6 24-10 33-18 8-7 11-10 11-18s-2-10-2-10l5-3s11 16 2 27-23 24-45 31-39 4-33-13c5-17 22-35 8-53-14-19-23-26-31-37-8-12-4-23 10-33 15-9 35-7 39-2 5 4 9 6 11 1 3-4 6-12 6-12zM447 201l-4 8 72 4 5-9-18-2s27-19 43-31c16-13 28-26 22-37-6-10-33-36-33-36l8-5 29 23h5l-33-32s-7 3-18 7-25 10-25 10 8 9 13 16c4 8 4 16 4 16l4-1s0-6-2-14c-1-8-5-13-5-13l12-2s16 15 23 25c7 9 3 18-9 27-13 10-65 44-65 44l-28 2zm-159-12v6l59 6 2-7-21-5s7-11 18-23c12-12 26-20 26-20s37 6 78 0 57-13 56-22c-2-9-10-21-42-18-32 4-66 3-66 3l-5 4 21 2s-24 2-49 16c-25 15-30 20-42 32-11 12-17 23-17 23l-18 3zm92-50s38 3 65-1 45-8 46-16c0-8-14-12-44-6-31 5-67 23-67 23zm-206 64l-1-8 8-4s5-28 32-52c28-25 69-38 84-41s27-1 27-1l3 8s-12-5-29 11c-16 16-24 31-27 44-3 12 0 26 0 26l8 2-2 6-41 3-2-8 15-3s-1-9 1-17c2-7 4-16 4-16s-13-1-23 0c-9 0-25 3-25 3s-5 5-9 13c-4 7-4 15-4 15l11 6 2 4s-8 2-17 5c-10 3-15 4-15 4zm40-55s11-2 22-2h20s8-13 15-21c8-8 16-18 16-18s-14 3-39 17c-26 13-34 24-34 24z" />
      <path d="M1258 129l37-37 74 74 128-129 37 37-165 165z" class="fil0" />
    </g>
  </g>
</svg>
